﻿<?xml version="1.0" encoding="utf-8" standalone="yes"?>
<!DOCTYPE svg PUBLIC "-//W3C//DTD SVG 1.1//EN" "http://www.w3.org/Graphics/SVG/1.1/DTD/svg11.dtd">
<svg version="1.1" xmlns="http://www.w3.org/2000/svg" xmlns:xlink="http://www.w3.org/1999/xlink" width="13.333333in" height="7.5in" class="slides-canvas" viewBox="0 0 960 540">
  <g text-rendering="geometricPrecision" transform="scale(1, 1)">
    <rect x="0" y="0" width="960" height="540" fill="#0E303E" />
    <path stroke-width="2" stroke="#7AF5AD" fill="none" d="M13.46 61.91L946.54 61.91" />
    <path fill="#7AF5AD" d="M21.8 511.65L168.7 511.65 168.7 540 21.8 540z" />
    <path stroke-width="1.5" stroke="#306747" fill="none" d="M21.8 511.65L168.7 511.65 168.7 540 21.8 540z" />
    <g transform="matrix(1, 0, 0, 1, 28.998344, 515.25354)"><text font-family="Verdana" font-style="normal" font-weight="normal" font-stretch="normal" font-size="13.5pt" fill="#0E303E" x="1.1891174" y="17.64161"><tspan x="1.1891174" y="17.64161">CHEESE WHIZ</tspan></text></g>
    <g transform="matrix(1, 0, 0, 1, 43.39914, 29.566141)"><text font-family="Verdana" font-style="normal" font-weight="normal" font-stretch="normal" font-size="16.5pt" fill="#FFFFFF" x="0" y="17.955038"><tspan x="0" y="17.955038">Our approach to Data Strategy</tspan></text></g>
    <g transform="matrix(1, 0, 0, 1, 930.9007, 515.426)"><text font-family="Segoe UI" font-style="normal" font-weight="normal" font-stretch="normal" font-size="6pt" fill="#FFFFFF" x="11.007322" y="13.475514"><tspan x="11.007322" y="13.475514">2</tspan></text></g>
    <path fill="#7AF5AD" d="M36.31 121.08L159.38 121.08 159.38 419.54 36.31 419.54z" />
    <g transform="matrix(1, 0, 0, 1, 43.512524, 124.676926)"><text font-family="Verdana" font-style="normal" font-weight="normal" font-stretch="normal" font-size="13.5pt" fill="#0E303E" x="10.336067" y="141.51227"><tspan x="13.86927" y="17.868382">Strategic</tspan><tspan xml:space="preserve" x="94.802864" y="17.868382"> </tspan><tspan x="14.836067" y="39.468384">Business</tspan><tspan xml:space="preserve" x="93.83607" y="39.468384"> </tspan><tspan x="7.102669" y="61.068386">Objectives</tspan><tspan x="18.048958" y="98.312256" font-size="9pt">Identity key</tspan><tspan xml:space="preserve" x="90.62318" y="98.312256" font-size="9pt"> </tspan><tspan x="9.701302" y="112.71226" font-size="9pt">objectives that</tspan><tspan xml:space="preserve" x="98.97083" y="112.71226" font-size="9pt"> </tspan><tspan x="2.129036" y="127.11226" font-size="9pt">the data strategy</tspan><tspan xml:space="preserve" x="106.5431" y="127.11226" font-size="9pt"> </tspan><tspan x="10.336067" y="141.51227" font-size="9pt">should enable.</tspan><tspan xml:space="preserve" x="98.33607" y="141.51227" font-size="9pt"> </tspan></text></g>
    <path fill="#87F5F3" d="M171.38 120.77L294.46 120.77 294.46 419.23 171.38 419.23z" />
    <g transform="matrix(1, 0, 0, 1, 178.58464, 124.36922)"><text font-family="Verdana" font-style="normal" font-weight="normal" font-stretch="normal" font-size="13.5pt" fill="#0E303E" x="6.3595047" y="184.71225"><tspan x="9.6925125" y="17.868382">Capability</tspan><tspan xml:space="preserve" x="98.97962" y="17.868382"> </tspan><tspan x="17.005013" y="39.468384">Maturity</tspan><tspan xml:space="preserve" x="91.66712" y="39.468384"> </tspan><tspan x="0.7110672" y="61.068386">Assessment</tspan><tspan x="17.148567" y="98.312256" font-size="9pt">Measure the</tspan><tspan xml:space="preserve" x="91.52357" y="98.312256" font-size="9pt"> </tspan><tspan x="4.461067" y="112.71226" font-size="9pt">current business</tspan><tspan xml:space="preserve" x="104.21107" y="112.71226" font-size="9pt"> </tspan><tspan x="20.898567" y="127.11226" font-size="9pt">capabilities</tspan><tspan xml:space="preserve" x="87.77357" y="127.11226" font-size="9pt"> </tspan><tspan x="20.523567" y="141.51227" font-size="9pt">against the</tspan><tspan xml:space="preserve" x="88.14857" y="141.51227" font-size="9pt"> </tspan><tspan x="0.3985672" y="155.91226" font-size="9pt">Cheese Whiz data</tspan><tspan xml:space="preserve" x="108.27357" y="155.91226" font-size="9pt"> </tspan><tspan x="12.773567" y="170.31226" font-size="9pt">capabilities to</tspan><tspan xml:space="preserve" x="95.89857" y="170.31226" font-size="9pt"> </tspan><tspan x="6.3595047" y="184.71225" font-size="9pt">gauge maturity.</tspan></text></g>
    <path fill="#F5DE6E" d="M306.46 120.77L800.62 120.77 800.62 419.23 306.46 419.23z" />
    <g transform="matrix(1, 0, 0, 1, 313.65674, 124.36922)"><text font-family="Verdana" font-style="normal" font-weight="normal" font-stretch="normal" font-size="13.5pt" fill="#0E303E" x="0" y="83.91226"><tspan x="0" y="17.868382">Data Capability</tspan><tspan x="0" y="55.11226" font-size="9pt">Undertake a data capability assessment to understand the business readiness</tspan><tspan xml:space="preserve" x="471.57422" y="55.11226" font-size="9pt"> </tspan><tspan x="0" y="69.51226" font-size="9pt">to deliver against the Strategic Business Needs. Identify the ‘As Is’ data</tspan><tspan xml:space="preserve" x="435.03906" y="69.51226" font-size="9pt"> </tspan><tspan x="0" y="83.91226" font-size="9pt">operating model</tspan></text></g>
    <path fill="#F593DE" d="M812.62 120.77L935.69 120.77 935.69 419.23 812.62 419.23z" />
    <g transform="matrix(1, 0, 0, 1, 819.81537, 124.36922)"><text font-family="Verdana" font-style="normal" font-weight="normal" font-stretch="normal" font-size="13.5pt" fill="#0E303E" x="8.461067" y="191.91223"><tspan x="2.1817703" y="17.868382">Operational</tspan><tspan xml:space="preserve" x="106.490364" y="17.868382"> </tspan><tspan x="35.336067" y="39.468384">Plan</tspan><tspan x="20.888802" y="76.71226" font-size="9pt">Developing</tspan><tspan xml:space="preserve" x="87.78333" y="76.71226" font-size="9pt"> </tspan><tspan x="23.586067" y="91.11226" font-size="9pt">actionable</tspan><tspan xml:space="preserve" x="85.08607" y="91.11226" font-size="9pt"> </tspan><tspan x="0.5235672" y="105.51226" font-size="9pt">recommendations</tspan><tspan xml:space="preserve" x="108.14857" y="105.51226" font-size="9pt"> </tspan><tspan x="9.845833" y="119.91226" font-size="9pt">to deliver a ‘To</tspan><tspan xml:space="preserve" x="98.8263" y="119.91226" font-size="9pt"> </tspan><tspan x="29.523567" y="134.31226" font-size="9pt">Be’ data</tspan><tspan xml:space="preserve" x="79.14857" y="134.31226" font-size="9pt"> </tspan><tspan x="15.922005" y="148.71225" font-size="9pt">capability, to</tspan><tspan xml:space="preserve" x="92.75013" y="148.71225" font-size="9pt"> </tspan><tspan x="10.076302" y="163.11224" font-size="9pt">deliver against</tspan><tspan xml:space="preserve" x="98.59583" y="163.11224" font-size="9pt"> </tspan><tspan x="16.441536" y="177.51224" font-size="9pt">the strategic</tspan><tspan xml:space="preserve" x="92.2306" y="177.51224" font-size="9pt"> </tspan><tspan x="8.461067" y="191.91223" font-size="9pt">business needs</tspan><tspan xml:space="preserve" x="100.21107" y="191.91223" font-size="9pt"> </tspan></text></g>
    <path fill="#0E303E" d="M369.63 232.02L738.96 232.02 738.96 254.39 369.63 254.39z" />
    <g transform="matrix(1, 0, 0, 1, 376.83224, 235.61755)"><text font-family="Verdana" font-style="normal" font-weight="bold" font-stretch="normal" font-size="7.5pt" fill="#FFFFFF" x="116.71646" y="11.513571"><tspan x="116.71646" y="11.513571">DATA ARCHITECTURE</tspan></text></g>
    <path fill="#0E303E" d="M369.57 263.74L738.9 263.74 738.9 286.11 369.57 286.11z" />
    <g transform="matrix(1, 0, 0, 1, 376.77267, 267.3388)"><text font-family="Verdana" font-style="normal" font-weight="bold" font-stretch="normal" font-size="7.5pt" fill="#FFFFFF" x="77.903915" y="11.513611"><tspan x="77.903915" y="11.513611">DATA ORGANISATION AND PEOPLE</tspan></text></g>
    <path fill="#0E303E" d="M369.57 295.46L738.9 295.46 738.9 317.83 369.57 317.83z" />
    <g transform="matrix(1, 0, 0, 1, 376.7726, 299.06015)"><text font-family="Verdana" font-style="normal" font-weight="bold" font-stretch="normal" font-size="7.5pt" fill="#FFFFFF" x="122.091415" y="11.513611"><tspan x="122.091415" y="11.513611">DATA TECHNOLOGY</tspan></text></g>
    <path fill="#0E303E" d="M369.57 327.18L738.9 327.18 738.9 349.55 369.57 349.55z" />
    <g transform="matrix(1, 0, 0, 1, 376.77264, 330.7815)"><text font-family="Verdana" font-style="normal" font-weight="bold" font-stretch="normal" font-size="7.5pt" fill="#FFFFFF" x="82.90387" y="11.513611"><tspan x="82.90387" y="11.513611">DATA GOVERNANCE FRAMEWORK</tspan></text></g>
    <path fill="#0E303E" d="M369.57 358.9L738.9 358.9 738.9 381.27 369.57 381.27z" />
    <g transform="matrix(1, 0, 0, 1, 376.77264, 362.50275)"><text font-family="Verdana" font-style="normal" font-weight="bold" font-stretch="normal" font-size="7.5pt" fill="#FFFFFF" x="79.15387" y="11.51365"><tspan x="79.15387" y="11.51365">DATA WORKFLOWS AND SERVICES</tspan></text></g>
  </g>
</svg>